HIERARCHY
ROOT pelvis
{
  OFFSET 0 100 0
  CHANNELS 6 Xposition Yposition Zposition Zrotation Xrotation Yrotation
  JOINT pelvis_right_femur
  {
    OFFSET -10.78128 -3.44521 -0.5502486
    CHANNELS 3 Zrotation Xrotation Yrotation
    JOINT right_femur_tibia
    {
      OFFSET -0.8047443 -44.0398 -0.1307829
      CHANNELS 3 Zrotation Xrotation Yrotation
      JOINT right_tibia_foot
      {
        OFFSET 3.006224 -47.83518 -5
        CHANNELS 3 Zrotation Xrotation Yrotation
        End Site
        {
          OFFSET 0 -5 15
        }
      }
    }
  }
  JOINT pelvis_left_femur
  {
    OFFSET 10.78128 -3.44521 -0.5502486
    CHANNELS 3 Zrotation Xrotation Yrotation
    JOINT left_femur_tibia
    {
      OFFSET 0.8047443 -44.0398 -0.1307829
      CHANNELS 3 Zrotation Xrotation Yrotation
      JOINT left_tibia_foot
      {
        OFFSET -4.370144 -48.10324 -4.275266
        CHANNELS 3 Zrotation Xrotation Yrotation
        End Site
        {
          OFFSET 0 -5 15
        }
      }
    }
  }
  JOINT pelvis_spine1
  {
    OFFSET 0 6.468898 -3.129235
    CHANNELS 3 Zrotation Xrotation Yrotation
    JOINT spine1
    {
      OFFSET 0 23.15396 4.99043
      CHANNELS 3 Zrotation Xrotation Yrotation
      JOINT spine2
      {
        OFFSET 0 20.79997 -5.064912
        CHANNELS 3 Zrotation Xrotation Yrotation
        JOINT neck
        {
          OFFSET 0 14.38658 9.616178
          CHANNELS 3 Zrotation Xrotation Yrotation
          End Site
          {
            OFFSET 0 20 0
          }
        }
      }
      JOINT right_manubrium
      {
        OFFSET -5.722621 16.35077 3.967754
        CHANNELS 3 Zrotation Xrotation Yrotation
        JOINT right_clavicle
        {
          OFFSET -13.16364 1.694482 -4.693211
          CHANNELS 3 Zrotation Xrotation Yrotation
          JOINT right_humerus
          {
            OFFSET -28.5034 -0.3100689 -2.792744
            CHANNELS 3 Zrotation Xrotation Yrotation
            JOINT right_radius
            {
              OFFSET -25.15693 0.02248979 -1.271978
              CHANNELS 3 Zrotation Xrotation Yrotation
              End Site
              {
                OFFSET -15 0 0
              }
            }
          }
        }
      }
      JOINT left_manubrium
      {
        OFFSET 5.722621 16.35077 3.967754
        CHANNELS 3 Zrotation Xrotation Yrotation
        JOINT left_clavicle
        {
          OFFSET 13.16364 1.694482 -4.693211
          CHANNELS 3 Zrotation Xrotation Yrotation
          JOINT left_humerus
          {
            OFFSET 29.39168 -1.063119 -2.237045
            CHANNELS 3 Zrotation Xrotation Yrotation
            JOINT left_radius
            {
              OFFSET 24.59957 -0.9528479 0.9047498
              CHANNELS 3 Zrotation Xrotation Yrotation
              End Site
              {
                OFFSET 15 -0 -0
              }
            }
          }
        }
      }
    }
  }
}
MOTION
Frames: 13
Frame Time: 0.0416666666667
0 103.5113 0 1.290661 -3.306739 0.2559831 1.364408 -10.96739 7.051149 -0 40.7967 -0 -5.865972 -15.80434 -3.382657 -6.424322 12.35418 -25.00006 -0 3.90857 -0 -0.1253092 -19.33892 23.36737 -0.9019717 -1.752854 3.342643 0.7318244 7.258654 -7.958011 1.59037 22.15716 8.216031 5.170893 -22.79689 9.024515 5.836736 -17.69801 10.17807 90.05121 35.6645 -25.61535 -0 0 14.88404 -8.092344 9.546165 2.585262 7.049622 -21.27098 -2.918948 -98.22904 42.17853 25.10791 0 0 -26.17778 -10.57491 17.75477 28.5556
0.1987156 103.7315 1.108642 0.4806464 -1.655321 0.3607361 2.623155 -14.29172 8.784497 -0 42.89468 -0 -5.583738 -15.97604 -3.906221 -5.981077 12.38288 -25.58265 -0 3.949483 -0 -2.226413 -20.59163 22.58258 -0.8733454 -1.755906 3.428873 0.7193437 7.300544 -7.934326 1.583058 22.15253 8.203845 5.145928 -22.79599 9.028851 5.85378 -17.70599 10.17388 90.00546 35.7737 -25.56497 -0 0 14.8524 -8.088029 9.618894 2.591847 7.065307 -21.30457 -2.881007 -98.17831 42.00022 25.09677 0 0 -26.20357 -10.23132 17.76365 28.2539
0.3630023 103.5935 2.764959 -0.0495721 -1.523701 0.4318491 3.524205 -19.44764 6.218203 -0 37.35164 -0 -7.460941 -12.51813 -3.023606 -5.58903 12.83703 -23.24626 -0 5.056418 -0 -0.6910274 -21.20331 21.65324 -1.656902 -0.8969316 4.196016 2.585632 7.920802 -7.537776 0.790598 22.31897 7.335694 3.51488 -24.7339 8.466541 6.180747 -17.40506 11.30347 86.23827 36.94423 -20.42906 -0 0 12.59183 -8.119094 9.235201 6.157998 4.62172 -19.56664 -2.579025 -94.22367 33.417 22.70958 0 0 -22.32052 0.08715856 14.46831 16.35015
0.5184584 103.4866 4.572988 -0.5783365 -0.1379422 0.4861108 4.734963 -23.48006 6.97542 -0 35.54234 -0 -7.225526 -11.86546 -3.317431 -5.398173 12.87507 -22.72175 -0 5.574637 -0 -0.6458355 -22.15946 21.24483 -1.649248 -1.115305 3.521199 3.201794 7.616108 -8.176648 0.8655602 22.10157 7.290844 3.321534 -25.49417 8.770001 6.309326 -17.14604 11.36982 87.09834 35.73437 -22.2371 -0 0 12.43644 -5.639757 8.293431 5.007155 4.730254 -19.54807 -2.470999 -94.66127 34.61339 22.4672 0 0 -22.88637 -0.8686269 14.95802 17.18625
0.6718642 103.2917 6.664865 -0.8449731 1.200407 0.5562535 5.762883 -27.33683 7.351574 -0 32.2239 -0 -6.854726 -11.10566 -3.443841 -5.469346 12.92153 -21.86948 -0 6.224879 -0 0.6760109 -22.79378 21.26021 -1.50315 -1.55089 3.029696 3.817612 7.438805 -8.954025 1.01225 21.66967 7.189684 3.017885 -26.42525 9.247341 6.379502 -17.09886 11.44709 88.16074 34.20947 -24.41226 -0 0 12.63598 -2.526537 7.285924 3.408874 5.106166 -19.75658 -2.066914 -95.34 35.55467 22.51616 0 0 -23.64419 -1.220551 15.69857 17.45356
0.8335489 103.0449 9.035963 -1.008866 2.661913 0.6689844 6.789551 -30.65844 8.09406 -0 29.20465 -0 -6.2207 -10.67372 -3.613652 -5.670097 12.89751 -21.28672 -0 6.807357 -0 2.223556 -23.28262 21.57304 -1.541882 -1.559543 2.873631 4.197856 7.442005 -9.17482 0.9775958 21.46545 7.156409 2.836119 -26.93726 9.360545 6.393631 -16.99168 11.59994 88.15285 33.91492 -24.56338 -0 0 12.343 -1.910933 7.160343 3.395858 5.059974 -19.70877 -1.866332 -94.85276 34.70204 21.92236 0 0 -23.5677 -0.1996905 15.46268 16.09487
1.00824 102.6798 11.81383 -1.076462 3.860627 0.8532582 7.544473 -33.60295 8.218509 -0 25.49548 -0 -5.795933 -9.566034 -3.45692 -5.909217 13.07305 -20.48215 -0 7.508085 -0 3.988775 -23.59453 21.79613 -1.562921 -1.576372 2.765611 4.492452 7.46455 -9.35482 0.9526971 21.25891 7.157876 2.707903 -27.3711 9.482303 6.393134 -16.91154 11.72234 88.15234 33.72542 -24.6744 -0 0 12.09587 -1.491958 7.145478 3.388035 5.083408 -19.71927 -1.651345 -94.37851 33.83348 21.35302 0 0 -23.53431 0.8314267 15.25493 14.74711
1.201791 102.164 15.10738 -1.154898 4.758643 1.154155 8.014142 -36.03944 7.774629 -0 21.45593 -0 -5.575174 -7.709399 -3.026667 -6.041694 13.51196 -19.56327 -0 8.333235 -0 5.109779 -23.90455 21.51608 -1.593673 -1.542632 2.638252 4.727582 7.464243 -9.484355 0.9212691 21.10085 7.176764 2.632016 -27.68597 9.546694 6.384373 -16.80187 11.82452 88.12715 33.61521 -24.70427 -0 0 11.81826 -1.339979 7.198587 3.487178 5.078571 -19.71024 -1.516891 -93.89391 33.1077 20.77693 0 0 -23.53368 1.56725 15.01147 13.7277
1.420538 101.4959 19.02604 -1.308037 5.302323 1.620938 8.149608 -37.64155 6.738328 -0 17.39224 -0 -5.571483 -5.151753 -2.334862 -5.962329 14.25737 -18.55797 -0 9.430899 -0 4.944957 -24.1211 20.33199 -1.635356 -1.439705 2.552455 4.900042 7.498689 -9.530569 0.8650308 20.97602 7.221727 2.605862 -27.89793 9.55342 6.366108 -16.66767 11.9218 88.01836 33.70756 -24.51757 -0 0 11.43057 -1.57367 7.382925 3.789819 5.041847 -19.70217 -1.455428 -93.23637 32.1511 20.07647 0 0 -23.51986 2.459546 14.60443 12.52139
1.668347 100.7592 23.61745 -1.643351 5.536263 2.285581 8.11599 -37.91521 5.530439 -0 14.18361 -0 -5.691707 -2.511653 -1.615701 -5.529319 15.16172 -17.64111 -0 11.1175 -0 2.584649 -23.96545 17.82574 -1.686314 -1.263107 2.487093 5.021505 7.567767 -9.510916 0.783838 20.8788 7.285267 2.628081 -27.99673 9.486939 6.336406 -16.49338 12.02017 87.85602 33.95284 -24.16546 -0 0 10.90952 -2.178783 7.674933 4.296148 4.965228 -19.69904 -1.493889 -92.39757 30.99085 19.2254 0 0 -23.54108 3.41822 14.01183 11.21266
1.936464 100.1443 28.82227 -2.22976 5.467448 3.090751 8.190144 -36.34328 4.696471 -0 12.98823 -0 -5.941989 -0.8975763 -1.222878 -4.675902 15.81959 -16.8441 -0 14.24779 -0 -2.11917 -22.55897 14.04222 -1.737061 -1.035486 2.465976 5.072773 7.695348 -9.43194 0.6857164 20.79986 7.359011 2.699373 -27.957 9.346151 6.289673 -16.30192 12.117 87.6709 34.31375 -23.68695 -0 0 10.29309 -3.144702 8.057454 4.975883 4.870033 -19.73124 -1.634989 -91.41453 29.62751 18.26308 0 0 -23.62373 4.423382 13.24712 9.828321
2.200238 99.91572 34.4826 -2.962286 4.988085 3.80562 8.526027 -32.94471 4.446488 -0 14.28663 -0 -6.523553 -1.279322 -1.462044 -3.631493 15.57508 -15.79464 -0 20.4248 -0 -7.339019 -18.91621 10.23682 -1.783803 -0.7882509 2.517058 5.027387 7.892332 -9.293766 0.5837426 20.75675 7.416954 2.807944 -27.73677 9.121644 6.224346 -16.13404 12.20444 87.48002 34.72001 -23.11335 -0 0 9.677972 -4.41999 8.47501 5.779297 4.752305 -19.80063 -1.887592 -90.4123 28.21188 17.33421 0 0 -23.74131 5.305132 12.37937 8.589161
2.440562 100.2624 40.47032 -3.38195 3.687378 4.063177 8.785306 -28.27876 4.065292 -0 16.40584 -0 -7.6009 -2.927951 -2.193482 -2.985318 13.90587 -13.79281 -0 31.14839 -0 -10.00483 -13.53535 8.274028 -1.832178 -0.5673812 2.671432 4.870227 8.143258 -9.091338 0.4962232 20.78698 7.422904 2.918975 -27.33508 8.827489 6.150638 -16.05564 12.27137 87.2569 35.08933 -22.4405 -0 0 9.238906 -5.840877 8.835458 6.611429 4.590132 -19.86156 -2.219384 -89.6096 27.01907 16.70063 0 0 -23.7539 5.859416 11.56014 7.784904
